<?xml version="1.0" encoding="utf-8"?>
<!-- Generator: Adobe Illustrator 27.3.1, SVG Export Plug-In . SVG Version: 6.00 Build 0)  -->
<svg version="1.1" id="Layer_1" xmlns="http://www.w3.org/2000/svg" xmlns:xlink="http://www.w3.org/1999/xlink" x="0px" y="0px"
	 viewBox="0 0 220 220" style="enable-background:new 0 0 220 220;" xml:space="preserve">
<style type="text/css">
	.st0{fill:#464749;}
</style>
<circle class="st0" cx="76.4" cy="73.2" r="36.8"/>
<path class="st0" d="M118.6,36.4v147.2c36.6,0,66.4-32.9,66.4-73.6S155.2,36.4,118.6,36.4z"/>
<path class="st0" d="M57.7,183.6c30.7,0,55.5-24.8,55.5-55.5H2.2C2.2,158.8,27,183.6,57.7,183.6z"/>
<rect x="190.6" y="78" class="st0" width="27.2" height="105.6"/>
<path d="M109.8,57.7c-6.2-11.3-18.4-19.1-32.2-19.1c-20.3,0-36.8,16.5-36.8,36.8c0,5.6,1.3,10.9,3.5,15.7c-3-5.3-4.6-11.4-4.6-17.9
	c0-20.3,16.5-36.8,36.8-36.8C91.2,36.4,103.9,45.1,109.8,57.7z"/>
<path d="M184.9,110c0,0.5,0,0.9,0,1.3c-0.6-40-30.1-72.3-66.4-72.3v-2.7C155.2,36.4,184.9,69.3,184.9,110z"/>
<polygon points="217.8,78 217.8,183.6 217.8,183.6 217.1,79.3 190.6,79.7 190.6,78 "/>
</svg>
