<?xml version="1.0" encoding="UTF-8"?>
<svg id="Layer_1" data-name="Layer 1" xmlns="http://www.w3.org/2000/svg" viewBox="0 0 50 50">
  <rect width="50" height="50" style="fill: #4a4138;"/>
  <g>
    <circle cx="20.73" cy="20.33" r="4.67" style="fill: #f1b71c;"/>
    <path d="M26.09,15.66v18.68c4.65,0,8.42-4.18,8.42-9.34s-3.77-9.34-8.42-9.34Z" style="fill: #f1b71c;"/>
    <path d="M18.36,34.34c3.89,0,7.04-3.15,7.04-7.04H11.32c0,3.89,3.15,7.04,7.04,7.04Z" style="fill: #f1b71c;"/>
    <rect x="35.23" y="20.94" width="3.45" height="13.4" style="fill: #f1b71c;"/>
    <path d="M24.97,18.36c-.79-1.44-2.33-2.42-4.09-2.42-2.58,0-4.67,2.09-4.67,4.67,0,.71,.16,1.38,.44,1.99-.38-.67-.59-1.45-.59-2.27,0-2.58,2.09-4.67,4.67-4.67,1.88,0,3.49,1.1,4.24,2.7Z" style="fill: #e38f25;"/>
    <path d="M34.51,25c0,.06,0,.11,0,.17-.08-5.08-3.82-9.17-8.42-9.17v-.34c4.65,0,8.42,4.18,8.42,9.34Z" style="fill: #e38f25;"/>
    <polygon points="38.68 20.94 38.68 34.34 38.68 34.34 38.59 21.1 35.23 21.16 35.23 20.94 38.68 20.94" style="fill: #e38f25;"/>
  </g>
</svg>