<?xml version="1.0" encoding="utf-8"?>
<!-- Generator: Adobe Illustrator 27.3.1, SVG Export Plug-In . SVG Version: 6.00 Build 0)  -->
<svg version="1.1" id="Layer_1" xmlns="http://www.w3.org/2000/svg" xmlns:xlink="http://www.w3.org/1999/xlink" x="0px" y="0px"
	 viewBox="0 0 220 220" style="enable-background:new 0 0 220 220;" xml:space="preserve">
<style type="text/css">
	.st0{stroke:#000000;stroke-width:4;stroke-miterlimit:41.6567;}
</style>
<g>
	<g>
		<path class="st0" d="M110,92.1c-21.7,0-39.4-17.7-39.4-39.4c0-21.7,17.7-39.4,39.4-39.4s39.4,17.7,39.4,39.4
			C149.4,74.4,131.7,92.1,110,92.1z M110,28.4c-13.4,0-24.3,10.9-24.3,24.3c0,13.4,10.9,24.3,24.3,24.3s24.3-10.9,24.3-24.3
			C134.3,39.3,123.4,28.4,110,28.4z"/>
	</g>
	<g>
		<path class="st0" d="M176.2,206.7c-21.7,0-39.4-17.7-39.4-39.4s17.7-39.4,39.4-39.4s39.4,17.7,39.4,39.4S197.9,206.7,176.2,206.7z
			 M176.2,143.1c-13.4,0-24.3,10.9-24.3,24.3s10.9,24.3,24.3,24.3c13.4,0,24.3-10.9,24.3-24.3S189.6,143.1,176.2,143.1z"/>
	</g>
	<g>
		<path class="st0" d="M43.8,206.7c-21.7,0-39.4-17.7-39.4-39.4s17.7-39.4,39.4-39.4s39.4,17.7,39.4,39.4S65.5,206.7,43.8,206.7z
			 M43.8,143.1c-13.4,0-24.3,10.9-24.3,24.3s10.9,24.3,24.3,24.3s24.3-10.9,24.3-24.3S57.2,143.1,43.8,143.1z"/>
	</g>
</g>
</svg>
