<?xml version="1.0" encoding="UTF-8"?>
<svg id="Layer_2" data-name="Layer 2" xmlns="http://www.w3.org/2000/svg" viewBox="0 0 400 31.85">
  <defs>
    <style>
      .cls-1 {
        fill: #000;
      }
    </style>
  </defs>
  <g id="Logo">
    <g>
      <g>
        <path class="cls-1" d="m0,1.83h18.46v3.24h-7.49v22.62h7.49v3.24H0v-3.24h7.49V5.07H0V1.83Z"/>
        <path class="cls-1" d="m46.62,29.44h.5V1.83h3.49v29.11h-6.99L35.23,3.33h-.5v27.61h-3.49V1.83h6.99l8.4,27.61Z"/>
        <path class="cls-1" d="m62.38,1.83h20.46v3.24h-8.48v25.87h-3.49V5.07h-8.48V1.83Z"/>
        <path class="cls-1" d="m95.48,1.83h17.63v3.24h-14.14v9.65h13.89v3.24h-13.89v9.73h14.39v3.24h-17.88V1.83Z"/>
        <path class="cls-1" d="m145.09,30.94h-3.49v-9.73c0-.72-.17-1.27-.5-1.66-.34-.39-.92-.58-1.75-.58h-9.06v11.98h-3.49V1.83h10.39c1.5,0,2.8.22,3.91.65,1.11.43,2.03,1,2.77,1.73.73.72,1.29,1.56,1.66,2.52.37.96.56,1.96.56,3.02v1.25c0,1.08-.3,2.16-.89,3.24-.6,1.08-1.52,1.91-2.77,2.5v.5c.83.14,1.48.47,1.95,1,.47.53.71,1.28.71,2.25v10.48Zm-14.8-15.22h6.48c1.97,0,3.43-.42,4.39-1.27.96-.85,1.44-2.09,1.44-3.72v-.75c0-1.47-.48-2.65-1.44-3.56-.96-.9-2.42-1.35-4.39-1.35h-6.48v10.65Z"/>
        <path class="cls-1" d="m158.89,1.83h17.88v3.24h-14.39v9.65h14.14v3.24h-14.14v12.98h-3.49V1.83Z"/>
        <path class="cls-1" d="m231.21,28.28c1.19,0,2.21-.2,3.06-.6.84-.4,1.54-.94,2.08-1.62.54-.68.94-1.45,1.21-2.33.26-.87.39-1.79.39-2.77v-.5h3.49v.5c0,1.47-.22,2.85-.66,4.14s-1.1,2.41-1.96,3.37c-.86.96-1.93,1.7-3.2,2.25-1.27.54-2.74.81-4.41.81-3.21,0-5.72-1.01-7.52-3.04-1.8-2.02-2.7-4.98-2.7-8.86v-6.49c0-3.77.9-6.7,2.7-8.77,1.8-2.08,4.31-3.12,7.52-3.12,1.66,0,3.14.27,4.41.81,1.27.54,2.34,1.29,3.2,2.25.86.96,1.51,2.08,1.96,3.37.44,1.29.66,2.67.66,4.14v.5h-3.49v-.5c-.03-.94-.17-1.86-.43-2.74-.26-.89-.67-1.67-1.2-2.35-.54-.68-1.23-1.22-2.06-1.62s-1.85-.6-3.04-.6c-2.24,0-3.93.82-5.05,2.45-1.12,1.64-1.68,3.79-1.68,6.45v5.99c0,2.85.56,5.05,1.68,6.59s2.81,2.31,5.05,2.31Z"/>
        <path class="cls-1" d="m253.91,1.83h17.63v3.24h-14.14v9.65h13.89v3.24h-13.89v9.73h14.39v3.24h-17.88V1.83Z"/>
        <path class="cls-1" d="m317,27.95h7.49V4.82h-7.24V1.83h10.48v26.12h7.49v2.99h-18.22v-2.99Z"/>
        <path class="cls-1" d="m363.66,27.45h-.5c-.67,1.39-1.59,2.41-2.77,3.08-1.18.66-2.42,1-3.72,1s-2.62-.23-3.79-.69c-1.16-.46-2.18-1.14-3.05-2.04-.87-.9-1.56-2-2.06-3.31-.5-1.3-.75-2.81-.75-4.53v-.66c0-1.69.25-3.19.75-4.49s1.19-2.4,2.06-3.31c.87-.9,1.89-1.59,3.05-2.06,1.17-.47,2.4-.71,3.7-.71,1.41,0,2.69.31,3.85.94,1.15.62,2.06,1.59,2.72,2.89h.5v-3.24h3.24v16.38c0,.83.37,1.25,1.12,1.25h1.04v2.99h-2.2c-.94,0-1.71-.31-2.31-.91-.6-.61-.89-1.39-.89-2.33v-.25Zm-6.66,1c.97,0,1.86-.18,2.68-.54.82-.36,1.51-.87,2.1-1.54.58-.66,1.04-1.46,1.37-2.39.33-.93.5-1.96.5-3.1v-.5c0-1.11-.17-2.13-.5-3.06-.34-.93-.8-1.73-1.39-2.39-.6-.66-1.3-1.19-2.12-1.56s-1.7-.56-2.64-.56-1.86.18-2.66.54c-.8.36-1.51.87-2.1,1.52-.59.65-1.06,1.44-1.39,2.37-.34.93-.5,1.95-.5,3.06v.66c0,2.36.62,4.19,1.85,5.51,1.23,1.32,2.84,1.97,4.8,1.97Z"/>
        <path class="cls-1" d="m382.87,30.94h-3.24V1.83h3.24v11.73h.5c.72-1.25,1.72-2.2,2.99-2.85,1.27-.65,2.66-.98,4.16-.98,1.28,0,2.48.23,3.62.71,1.14.47,2.14,1.15,3.02,2.04.87.89,1.57,1.98,2.08,3.28.51,1.3.77,2.79.77,4.45v.83c0,1.69-.25,3.19-.75,4.49-.5,1.3-1.18,2.4-2.06,3.28-.87.89-1.89,1.56-3.06,2.02-1.16.46-2.4.69-3.7.69-.67,0-1.34-.08-2.03-.23-.7-.15-1.36-.39-1.98-.71s-1.2-.71-1.73-1.17c-.52-.46-.97-1-1.33-1.64h-.5v3.16Zm6.9-2.5c1,0,1.91-.17,2.74-.52.83-.35,1.56-.84,2.19-1.48.62-.64,1.11-1.41,1.45-2.33.35-.92.52-1.94.52-3.08v-.83c0-1.11-.17-2.11-.52-3.01-.34-.9-.83-1.68-1.45-2.33-.62-.65-1.36-1.16-2.2-1.52-.85-.36-1.76-.54-2.73-.54s-1.87.19-2.7.56c-.83.37-1.56.89-2.18,1.56s-1.12,1.46-1.48,2.39c-.36.93-.54,1.95-.54,3.06v.5c0,1.14.18,2.17.54,3.1.36.93.85,1.73,1.48,2.39.62.67,1.35,1.18,2.18,1.54.83.36,1.73.54,2.7.54Z"/>
      </g>
      <path class="cls-1" d="m198.46,12.98c-3.58,0-6.49-2.91-6.49-6.49s2.91-6.49,6.49-6.49,6.49,2.91,6.49,6.49-2.91,6.49-6.49,6.49Zm0-10.49c-2.2,0-4,1.79-4,3.99s1.79,4,4,4,4-1.79,4-4-1.79-3.99-4-3.99Z"/>
      <path class="cls-1" d="m209.35,31.85c-3.58,0-6.49-2.91-6.49-6.49s2.91-6.49,6.49-6.49,6.49,2.91,6.49,6.49-2.91,6.49-6.49,6.49Zm0-10.48c-2.2,0-4,1.79-4,3.99s1.79,3.99,4,3.99,4-1.79,4-3.99-1.79-3.99-4-3.99Z"/>
      <path class="cls-1" d="m187.56,31.85c-3.58,0-6.49-2.91-6.49-6.49s2.91-6.49,6.49-6.49,6.49,2.91,6.49,6.49-2.91,6.49-6.49,6.49Zm0-10.48c-2.2,0-3.99,1.79-3.99,3.99s1.79,3.99,3.99,3.99,4-1.79,4-3.99-1.79-3.99-4-3.99Z"/>
    </g>
  </g>
</svg>