<?xml version="1.0" encoding="utf-8"?>
<!-- Generator: Adobe Illustrator 28.0.0, SVG Export Plug-In . SVG Version: 6.00 Build 0)  -->
<svg version="1.1" id="Layer_1" xmlns="http://www.w3.org/2000/svg" xmlns:xlink="http://www.w3.org/1999/xlink" x="0px" y="0px"
	 viewBox="0 0 220 220" style="enable-background:new 0 0 220 220;" xml:space="preserve">
<style type="text/css">
	.st0{fill:#464749;}
</style>
<path class="st0" d="M115.8,62.5c80.3-63.1,119.4,26.4,90.7,20.1C186.4,68.2,141.1,53.3,115.8,62.5L115.8,62.5z"/>
<path class="st0" d="M110.1,66.5C98.6,29.2,55.6,10.3,20,25.7C14.9,27.5-2.4,36.1,4.5,41.8l0,0C41.2,32.6,82.6,36.6,110.1,66.5
	L110.1,66.5z"/>
<path class="st0" d="M104.9,76.8c-10.3,39,2.9,60.8,4,91.2c0.6,25.8-6.3,42.5-6.3,44.8h6.9c5.7-21.2,6.9-44.8,4-66.6
	c-1.7-14.9-14.3-64.8,15.5-90.7c3.4-2.9-16.1,6.3-18.4,10.3l-5.2-10.3C100.3,61.9,106.7,69.9,104.9,76.8z"/>
<path d="M209.4,82.9C209.4,82.9,208.8,82.9,209.4,82.9c21.2-2.9-24.1-67.7-83.2-27c0.6-0.6,0.6-0.6,1.1-1.1
	C197.3,8.9,231.8,82.9,209.4,82.9L209.4,82.9z"/>
</svg>
