<?xml version="1.0" encoding="utf-8"?>
<!-- Generator: Adobe Illustrator 27.0.1, SVG Export Plug-In . SVG Version: 6.00 Build 0)  -->
<svg version="1.1" id="Layer_1" xmlns="http://www.w3.org/2000/svg" xmlns:xlink="http://www.w3.org/1999/xlink" x="0px" y="0px"
	 viewBox="0 0 50 50" style="enable-background:new 0 0 50 50;" xml:space="preserve">
<style type="text/css">
	.st0{fill:#85C340;}
	.st1{fill:#E6E7E8;}
	.st2{fill:#D1D3D4;}
</style>
<rect class="st0" width="50" height="50"/>
<g>
	<path class="st1" d="M26.1,17c14-11,20.8,4.6,15.8,3.5C38.4,18,30.5,15.4,26.1,17C26.1,17,26.1,17,26.1,17z"/>
	<path class="st1" d="M25.1,17.7c-2-6.5-9.5-9.8-15.7-7.1c-0.9,0.3-3.9,1.8-2.7,2.8l0,0C13.1,11.8,20.3,12.5,25.1,17.7L25.1,17.7z"
		/>
	<path class="st1" d="M24.2,19.5c-1.8,6.8,0.5,10.6,0.7,15.9c0.1,4.5-1.1,7.4-1.1,7.8h1.2c1-3.7,1.2-7.8,0.7-11.6
		c-0.3-2.6-2.5-11.3,2.7-15.8c0.6-0.5-2.8,1.1-3.2,1.8l-0.9-1.8C23.4,16.9,24.5,18.3,24.2,19.5z"/>
	<path class="st2" d="M42.4,20.7C42.4,20.7,42.3,20.7,42.4,20.7c3.7-0.5-4.2-11.8-14.5-4.7c0.1-0.1,0.1-0.1,0.2-0.2
		C40.3,7.8,46.3,20.7,42.4,20.7L42.4,20.7z"/>
</g>
</svg>
